<svg width="206" height="146" viewBox="0 0 206 146" fill="none" xmlns="http://www.w3.org/2000/svg">
<path d="M117.185 1.04541V59.9176H88.3551V1.04541H117.185ZM72.4432 60.9176H87.3551V73.2727V88.3267H67.9688H67.6735L67.5309 88.5852L36.1394 145.5H0.878895L46.0264 69.5509L46.1834 69.2867L46.0186 69.0273L2.82766 1.04541H39.476L72.0043 60.6571L72.1464 60.9176H72.4432ZM138.068 88.3267H118.185V60.9176H133.878H134.178L134.319 60.6522L165.997 1.04541H202.509L160.371 68.8183L160.212 69.0738L160.363 69.3338L204.67 145.5H169.12L138.509 88.5898L138.367 88.3267H138.068ZM88.3551 88.3267V73.2727V60.9176H117.185V88.3267H88.3551ZM88.3551 145.5V89.3267H117.185V145.5H88.3551Z" stroke="white"/>
</svg>
